<svg width="30" height="30" viewBox="0 0 30 30" fill="none" xmlns="http://www.w3.org/2000/svg">
<path fill-rule="evenodd" clip-rule="evenodd" d="M14.9999 3.1056L12.0495 6.15827C11.7355 6.48319 11.303 6.66667 10.8511 6.66667H6.66661V10.8512C6.66661 11.3031 6.48313 11.7356 6.15821 12.0496L3.10554 15L6.15821 17.9504C6.48313 18.2644 6.66661 18.6969 6.66661 19.1488V23.3333H10.8511C11.303 23.3333 11.7355 23.5168 12.0495 23.8417L14.9999 26.8944L17.9503 23.8417C18.2644 23.5168 18.6969 23.3333 19.1488 23.3333H23.3333V19.1488C23.3333 18.6969 23.5168 18.2644 23.8417 17.9504L26.8943 15L23.8417 12.0496C23.5168 11.7356 23.3333 11.3031 23.3333 10.8512V6.66667H19.1487C18.6969 6.66667 18.2644 6.48319 17.9503 6.15827L14.9999 3.1056ZM13.8015 1.46769C14.4567 0.789822 15.5432 0.789823 16.1984 1.46769L19.2902 4.66667H23.6666C24.5871 4.66667 25.3333 5.41286 25.3333 6.33333V10.7098L28.5323 13.8016C29.2101 14.4567 29.2101 15.5433 28.5323 16.1984L25.3333 19.2902V23.6667C25.3333 24.5871 24.5871 25.3333 23.6666 25.3333H19.2902L16.1984 28.5323C15.5432 29.2102 14.4567 29.2102 13.8015 28.5323L10.7097 25.3333H6.33327C5.4128 25.3333 4.66661 24.5871 4.66661 23.6667V19.2902L1.46763 16.1984C0.789762 15.5433 0.789761 14.4567 1.46763 13.8016L4.66661 10.7098V6.33333C4.66661 5.41286 5.4128 4.66667 6.33327 4.66667H10.7097L13.8015 1.46769Z" fill="white"/>
<path fill-rule="evenodd" clip-rule="evenodd" d="M8.66661 15C8.66661 11.5022 11.5021 8.66667 14.9999 8.66667C18.4977 8.66667 21.3333 11.5022 21.3333 15C21.3333 18.4978 18.4977 21.3333 14.9999 21.3333C11.5021 21.3333 8.66661 18.4978 8.66661 15ZM14.9999 10.6667C12.6067 10.6667 10.6666 12.6068 10.6666 15C10.6666 17.3932 12.6067 19.3333 14.9999 19.3333C17.3932 19.3333 19.3333 17.3932 19.3333 15C19.3333 12.6068 17.3932 10.6667 14.9999 10.6667Z" fill="white"/>
</svg>
